<?xml version="1.0" encoding="utf-8"?>
<!-- Generator: Adobe Illustrator 16.0.3, SVG Export Plug-In . SVG Version: 6.00 Build 0)  -->
<!DOCTYPE svg PUBLIC "-//W3C//DTD SVG 1.1//EN" "http://www.w3.org/Graphics/SVG/1.1/DTD/svg11.dtd">
<svg version="1.1" id="Capa_1" xmlns="http://www.w3.org/2000/svg" xmlns:xlink="http://www.w3.org/1999/xlink" x="0px" y="0px"
	 width="984px" height="186px" viewBox="0 0 984 186" enable-background="new 0 0 984 186" xml:space="preserve">
<g>
	<polygon fill="#2173B2" stroke="#000000" stroke-miterlimit="10" points="973.49,161.551 18.49,161.551 18.49,129.001 
		18.49,127.761 18.49,17.945 973.49,17.945 	"/>
	<path fill="#2173B2" stroke="#59370E" stroke-miterlimit="10" d="M52.508,125.834"/>
	<path fill="#2173B2" stroke="#59370E" stroke-miterlimit="10" d="M18.49,134.789c12.847-2.479,60.246-20.665,60.246-20.665
		l20.224-17.771l12.956-15.291l23.067-31.41l14.536-29.64H705.98l80.264,71.803l52.453,11.563l56.879,4.959l77.914,0.827
		L830.482,20.013"/>
	<polygon fill="#AF1F4E" stroke="#FCFCFC" stroke-miterlimit="10" points="706.273,20.578 730.779,41.064 704.963,58.58 	"/>
	<polygon fill="#AF1F4E" stroke="#FCFCFC" stroke-miterlimit="10" points="736.451,48.888 760.957,69.375 735.141,86.89 	"/>
	<polygon fill="#AF1F4E" stroke="#FCFCFC" stroke-miterlimit="10" points="764.891,73.891 786.838,92.24 764.385,106.558 	"/>
	<polygon fill="#AF1F4E" stroke="#FCFCFC" stroke-miterlimit="10" points="798.883,95.299 824.564,101.002 808.156,125.637 	"/>
	<polygon fill="#AF1F4E" stroke="#FCFCFC" stroke-miterlimit="10" points="841.666,105.312 867.668,107.357 853.391,134.164 	"/>
	<polygon fill="#AF1F4E" stroke="#FCFCFC" stroke-miterlimit="10" points="880.146,107.85 906.18,109.051 892.416,136.312 	"/>
	<polygon fill="#AF1F4E" stroke="#FCFCFC" stroke-miterlimit="10" points="916.086,110.643 942.123,109.561 929.785,137.967 	"/>
	<polygon fill="#AF1F4E" stroke="#FCFCFC" stroke-miterlimit="10" points="830.219,20.558 853.115,36.799 831.506,53.186 	"/>
	<polygon fill="#AF1F4E" stroke="#FCFCFC" stroke-miterlimit="10" points="858.787,39.829 882.387,54.244 861.568,72.298 	"/>
	<polygon fill="#AF1F4E" stroke="#FCFCFC" stroke-miterlimit="10" points="885.963,56.064 909.563,70.479 888.744,88.533 	"/>
	<polygon fill="#AF1F4E" stroke="#FCFCFC" stroke-miterlimit="10" points="914.189,73.514 937.791,87.928 916.973,105.983 	"/>
	<polygon fill="#AF1F4E" stroke="#FCFCFC" stroke-miterlimit="10" points="133.391,52.035 148.975,24.738 158.264,55.064 	"/>
	<polygon fill="#AF1F4E" stroke="#FCFCFC" stroke-miterlimit="10" points="113.157,82.092 130.764,56.988 137.67,88.384 	"/>
	<polygon fill="#AF1F4E" stroke="#FCFCFC" stroke-miterlimit="10" points="88.473,107.869 108.654,86.33 112.042,118.697 	"/>
	<polygon fill="#AF1F4E" stroke="#FCFCFC" stroke-miterlimit="10" points="56.999,122.463 82.055,113.156 75.352,144.628 	"/>
	<polygon fill="#AF1F4E" stroke="#FCFCFC" stroke-miterlimit="10" points="24.452,135.141 49.507,125.834 42.805,157.305 	"/>
</g>
</svg>
